<svg width="800" height="800" viewBox="0 0 800 800" fill="none" xmlns="http://www.w3.org/2000/svg">
<g clip-path="url(#clip0_752_6570)">
<path d="M455.027 62.6369C455.027 63.7202 455.027 64.8036 455.224 65.8869C455.224 66.4778 455.224 67.1672 455.322 67.7581C455.322 68.743 455.519 69.7279 455.618 70.7127C455.618 71.4021 455.716 71.993 455.815 72.6824C455.913 73.6673 456.012 74.5537 456.11 75.5385C456.11 76.2279 456.307 76.8188 456.406 77.5082C456.504 78.4931 456.701 79.3795 456.8 80.3643C456.898 81.0537 456.997 81.6446 457.095 82.334C457.292 83.3189 457.489 84.3038 457.686 85.2886C457.784 85.8795 457.883 86.4704 458.08 87.0614C458.277 88.1447 458.572 89.3265 458.868 90.4099C458.966 90.8038 459.065 91.2962 459.163 91.6902C459.557 93.266 459.951 94.7433 460.345 96.2205C460.444 96.6145 460.542 97.0084 460.641 97.4024C460.936 98.4857 461.33 99.6675 461.625 100.751C461.822 101.342 462.019 101.933 462.216 102.524C462.512 103.41 462.807 104.395 463.103 105.281C463.3 105.872 463.497 106.562 463.792 107.152C464.088 108.039 464.383 108.827 464.777 109.713C464.974 110.402 465.269 110.993 465.565 111.584C465.86 112.372 466.254 113.259 466.55 114.046C466.845 114.637 467.042 115.327 467.338 115.918C467.731 116.804 468.027 117.592 468.421 118.38C468.716 118.971 469.012 119.562 469.209 120.153C469.603 121.039 469.997 121.925 470.489 122.713C470.785 123.304 470.982 123.797 471.277 124.387C471.868 125.471 472.36 126.554 472.951 127.638C473.148 127.933 473.247 128.228 473.444 128.622C474.232 130.001 474.921 131.281 475.709 132.66C476.004 133.153 476.3 133.645 476.595 134.138C477.088 134.925 477.58 135.812 478.171 136.6C478.565 137.191 478.86 137.782 479.254 138.274C479.747 139.062 480.239 139.751 480.732 140.539C481.126 141.13 481.52 141.721 481.913 142.312C482.406 143.001 482.898 143.789 483.391 144.479C483.785 145.069 484.179 145.66 484.671 146.153C485.164 146.842 485.754 147.532 486.247 148.221C486.641 148.812 487.133 149.304 487.527 149.895C488.118 150.585 488.709 151.274 489.201 151.963C489.595 152.456 490.088 153.047 490.482 153.539C491.073 154.327 491.762 155.017 492.451 155.804C492.845 156.297 493.239 156.691 493.633 157.183C494.717 158.365 495.701 159.448 496.785 160.532C497.08 160.827 497.474 161.221 497.77 161.517C498.558 162.304 499.345 163.092 500.133 163.88C500.626 164.373 501.02 164.767 501.512 165.259C502.202 165.948 502.891 166.539 503.58 167.229C504.073 167.721 504.565 168.115 505.156 168.608C505.845 169.199 506.535 169.789 507.224 170.38C507.717 170.873 508.308 171.267 508.8 171.759C509.489 172.35 510.179 172.941 510.868 173.433C511.459 173.827 511.952 174.32 512.543 174.714C513.232 175.305 514.02 175.797 514.709 176.388C515.3 176.782 515.793 177.176 516.384 177.57C516.58 177.668 516.777 177.865 516.974 177.964L455.027 47.864C455.027 47.864 455.027 48.1595 455.027 48.3564C454.928 50.8186 454.83 53.3792 454.83 55.9398C454.83 57.6141 454.83 59.1899 454.83 60.7657C454.83 61.2581 454.83 61.849 454.83 62.3414L455.027 62.6369Z" fill="url(#paint0_linear_752_6570)"/>
<path d="M351.715 73.6674C352.208 74.8492 352.602 75.8341 352.897 76.5235C356.344 85.7811 360.579 94.9403 365.405 103.706C372.003 115.622 379.882 127.145 388.844 138.077C393.769 143.986 398.988 149.698 404.504 155.115C420.557 170.971 439.171 184.365 458.178 196.873L459.459 197.661C502.792 222.282 534.997 245.328 561.391 271.328L526.232 197.464C525.641 197.169 525.149 196.775 524.558 196.479C523.77 196.085 523.08 195.593 522.292 195.199C521.505 194.706 520.618 194.214 519.83 193.722C519.042 193.229 518.353 192.835 517.565 192.343C516.777 191.85 515.989 191.259 515.202 190.767C514.512 190.275 513.724 189.782 513.035 189.29C512.247 188.797 511.459 188.206 510.77 187.615C510.08 187.123 509.391 186.631 508.603 186.04C507.815 185.449 507.126 184.956 506.436 184.365C505.747 183.873 505.057 183.282 504.368 182.79C503.679 182.199 502.891 181.608 502.201 181.017C501.512 180.426 500.823 179.934 500.232 179.343C499.542 178.752 498.853 178.161 498.163 177.471C497.474 176.88 496.883 176.29 496.194 175.699C495.504 175.108 494.815 174.418 494.224 173.827C493.633 173.236 492.944 172.646 492.353 172.055C491.663 171.464 491.072 170.774 490.383 170.085C489.792 169.494 489.103 168.805 488.512 168.214C487.921 167.524 487.232 166.933 486.641 166.244C486.05 165.555 485.459 164.964 484.868 164.274C484.277 163.585 483.686 162.895 483.095 162.206C482.504 161.517 481.913 160.926 481.421 160.236C480.83 159.547 480.239 158.858 479.747 158.168C479.156 157.479 478.663 156.789 478.072 156.1C477.481 155.411 476.989 154.623 476.398 153.933C475.906 153.244 475.315 152.554 474.822 151.865C474.33 151.176 473.739 150.388 473.247 149.698C472.754 149.009 472.262 148.221 471.769 147.532C471.277 146.744 470.784 146.054 470.292 145.267C469.8 144.577 469.307 143.789 468.815 143.1C468.322 142.312 467.83 141.623 467.436 140.835C466.943 140.047 466.55 139.357 466.057 138.569C465.565 137.782 465.171 136.994 464.678 136.206C464.284 135.418 463.792 134.63 463.398 133.941C463.004 133.153 462.512 132.365 462.118 131.577C461.724 130.789 461.33 130.001 460.936 129.213C460.542 128.425 460.148 127.539 459.754 126.751C459.36 125.963 458.966 125.175 458.572 124.388C458.178 123.6 457.784 122.713 457.489 121.925C457.095 121.138 456.799 120.35 456.406 119.562C456.012 118.774 455.716 117.887 455.421 117.001C455.125 116.213 454.731 115.425 454.436 114.539C454.14 113.653 453.845 112.865 453.451 111.978C453.155 111.19 452.86 110.304 452.565 109.516C452.269 108.63 451.974 107.743 451.678 106.857C451.383 106.069 451.087 105.183 450.89 104.395C450.595 103.509 450.398 102.622 450.102 101.736C449.905 100.948 449.61 100.062 449.413 99.2737C449.118 98.3873 448.921 97.4024 448.724 96.5161C448.527 95.7282 448.33 94.8418 448.133 94.0539C447.936 93.1676 447.739 92.1827 447.542 91.2963C447.345 90.5084 447.148 89.6221 446.951 88.8342C446.754 87.8493 446.557 86.9629 446.458 85.9781C446.261 85.1902 446.163 84.3038 445.966 83.5159C445.769 82.5311 445.671 81.5462 445.474 80.5614C445.375 79.7735 445.178 78.9856 445.08 78.0992C444.981 77.1144 444.784 76.031 444.686 75.0462C444.686 74.2583 444.489 73.4704 444.39 72.6825C444.292 71.5992 444.193 70.5158 444.095 69.4325C444.095 68.7431 443.996 67.9552 443.898 67.2658C443.898 66.084 443.799 64.8037 443.701 63.6218C443.701 63.0309 443.701 62.44 443.701 61.8491C443.701 59.9779 443.701 58.2051 443.701 56.3339C443.701 53.9702 443.701 51.6066 443.898 49.2429C443.898 48.455 443.996 47.6671 444.095 46.8792C444.095 45.3035 444.292 43.7277 444.39 42.1519C444.39 41.2656 444.587 40.2807 444.686 39.3943C444.883 37.917 444.981 36.5382 445.178 35.1594C445.277 34.1746 445.474 33.1897 445.572 32.2049C445.769 31.1215 445.868 30.1367 446.064 29.0533C427.746 -9.45462 372.89 -9.45462 354.473 29.0533L347.874 43.0383H348.071L344.821 49.4399C346.594 57.7127 348.958 65.7885 351.814 73.8643L351.715 73.6674Z" fill="url(#paint1_linear_752_6570)"/>
<path d="M630.038 391.382C623.833 377.299 616.644 363.314 608.666 349.92C581.78 305.01 543.863 265.715 499.052 236.366C491.37 231.343 483.491 226.32 475.809 221.494C467.832 216.472 459.854 211.449 451.877 206.229C432.475 193.426 413.369 179.638 396.528 163.092C392.588 159.153 388.748 155.214 385.104 151.077C384.907 150.88 384.808 150.683 384.611 150.486C383.626 149.403 382.74 148.221 381.755 147.138C372.005 135.615 363.437 123.403 356.346 110.698C355.853 109.713 355.361 108.728 354.77 107.842C354.278 107.054 353.884 106.168 353.391 105.38C352.899 104.493 352.406 103.607 352.012 102.721C348.368 95.5312 345.118 88.0463 342.262 80.5614C341.967 79.872 341.573 78.8871 341.08 77.8037C340.883 77.4098 340.785 77.0159 340.588 76.6219C339.012 72.781 337.633 69.4325 336.452 66.3794L331.921 75.9325C300.11 142.607 363.437 210.858 404.013 245.624C415.634 255.571 427.945 265.124 439.862 274.381C457.097 287.677 474.824 301.465 491.074 316.829C533.325 357.011 555.681 406.254 555.681 459.239C555.681 492.626 547.408 524.043 532.832 551.619C511.067 592.983 476.006 624.498 434.445 642.127C434.248 642.127 434.051 642.226 433.952 642.324C432.574 642.915 431.195 643.506 429.816 643.998C429.422 644.195 429.028 644.294 428.634 644.491C426.763 645.18 424.99 645.87 423.119 646.559C421.937 646.953 420.854 647.347 419.672 647.741C418.983 647.938 418.293 648.233 417.604 648.43C416.127 648.923 414.649 649.317 413.172 649.809C412.778 649.908 412.384 650.006 411.99 650.105C407.952 651.286 403.816 652.271 399.679 653.256C399.482 653.256 399.286 653.256 399.089 653.355C392.785 654.733 386.285 655.817 379.785 656.506C379.588 656.506 379.49 656.506 379.293 656.506C377.126 656.703 374.861 656.999 372.694 657.097C370.528 657.294 368.262 657.393 366.096 657.491C366.096 657.491 365.997 657.491 365.899 657.491C363.831 657.491 361.762 657.688 359.596 657.688C359.497 657.688 359.3 657.688 359.202 657.688H357.823C357.823 657.688 357.232 657.688 357.035 657.688C357.035 657.688 356.937 657.688 356.838 657.688H356.543C355.558 657.688 354.671 657.688 353.687 657.688C353.687 657.688 353.49 657.688 353.293 657.688C352.997 657.688 352.702 657.688 352.406 657.688C352.406 657.688 351.815 657.688 351.52 657.688C350.141 657.688 348.762 657.59 347.384 657.491H346.99C346.99 657.491 346.399 657.491 346.103 657.491C343.74 657.393 341.277 657.196 338.914 656.999C338.027 656.999 337.239 656.9 336.353 656.802C333.989 656.605 331.626 656.211 329.164 655.915C328.277 655.817 327.489 655.718 326.603 655.521C324.338 655.127 321.974 654.733 319.709 654.34C318.823 654.143 317.936 654.044 317.05 653.847C314.883 653.453 312.716 652.961 310.55 652.37C309.565 652.173 308.482 651.877 307.497 651.68C305.527 651.188 303.557 650.597 301.588 650.105C300.406 649.809 299.224 649.415 298.141 649.12C296.368 648.627 294.694 648.036 293.019 647.445C291.641 646.953 290.262 646.559 288.883 646.067C287.406 645.574 286.027 644.983 284.55 644.392C282.974 643.802 281.3 643.112 279.724 642.521C278.542 642.029 277.459 641.536 276.375 641.044C274.504 640.256 272.633 639.37 270.762 638.483C269.974 638.089 269.186 637.695 268.398 637.301C266.231 636.218 264.064 635.135 261.898 633.953C261.504 633.756 261.011 633.461 260.618 633.264C258.057 631.885 255.595 630.407 253.231 628.93C253.231 628.93 253.133 628.93 253.034 628.832C251.261 627.748 249.489 626.566 247.716 625.483C246.436 624.597 245.155 623.809 243.875 622.923C243.481 622.627 243.087 622.332 242.693 622.135C241.117 621.051 239.64 619.968 238.163 618.885C235.996 617.309 233.928 615.635 231.86 613.96C230.579 612.877 229.299 611.794 227.92 610.71C227.231 610.119 226.541 609.528 225.852 608.938C224.375 607.657 222.897 606.278 221.42 604.998C221.026 604.604 220.534 604.21 220.14 603.718C218.564 602.24 216.988 600.763 215.511 599.187L215.314 598.99C215.216 598.892 215.117 598.794 215.019 598.695C212.753 596.43 210.587 594.066 208.519 591.703C208.223 591.407 208.026 591.112 207.731 590.816C205.761 588.551 203.791 586.286 201.92 583.922C201.625 583.528 201.329 583.134 201.034 582.74C199.162 580.377 197.39 578.013 195.715 575.649C195.42 575.255 195.124 574.96 194.927 574.566C192.958 571.808 191.087 569.051 189.215 566.195C189.215 566.195 189.215 566.096 189.117 565.998C187.738 563.831 186.458 561.664 185.079 559.399C184.98 559.202 184.783 558.907 184.685 558.71C183.503 556.642 182.321 554.475 181.139 552.308C180.943 552.013 180.844 551.717 180.647 551.422C179.367 549.058 178.185 546.596 177.003 544.134C177.003 543.937 176.806 543.74 176.708 543.543C175.624 541.278 174.738 539.013 173.753 536.747C173.458 536.058 173.162 535.369 172.867 534.679C172.177 533.104 171.586 531.429 170.995 529.755C170.503 528.376 169.912 526.997 169.42 525.717C169.321 525.323 169.124 524.929 169.026 524.535C161.836 503.853 158.094 481.891 158.094 459.436C158.094 456.482 158.094 453.428 158.291 450.474C158.291 449.686 158.291 448.898 158.389 448.11C158.488 445.944 158.685 443.777 158.882 441.61C158.882 441.216 158.882 440.724 158.882 440.33C145.882 471.747 139.382 505.035 139.382 539.505C139.382 683.294 256.383 800.197 400.073 800.197C472.657 800.197 542.484 769.568 591.727 716.189C634.863 669.408 658.5 608.248 660.076 539.308C661.159 490.164 650.72 439.05 630.038 391.579V391.382Z" fill="url(#paint2_linear_752_6570)"/>
<path d="M169.615 470.565C169.714 472.338 169.812 474.012 170.009 475.686C170.108 477.065 170.305 478.542 170.403 479.921C170.502 481.004 170.699 481.989 170.797 483.073C179.858 552.801 227.722 611.006 291.935 634.839C282.677 627.256 274.798 618.195 268.692 607.854C268.692 607.756 268.593 607.657 268.495 607.559C267.707 606.278 267.018 604.9 266.328 603.619C266.328 603.521 266.23 603.422 266.131 603.324C264.654 600.468 263.275 597.612 262.093 594.558C261.01 591.801 259.927 589.043 259.139 586.187C259.139 585.892 258.942 585.596 258.843 585.399C258.548 584.316 258.252 583.134 257.957 582.051C257.76 581.46 257.661 580.869 257.464 580.278C257.169 579.293 256.972 578.21 256.775 577.127C256.578 576.339 256.48 575.649 256.283 574.861C256.086 573.876 255.889 572.892 255.79 571.907C255.692 571.02 255.495 570.233 255.396 569.346C255.298 568.46 255.101 567.475 255.101 566.589C255.002 565.604 254.904 564.619 254.805 563.634C254.805 562.748 254.707 561.96 254.608 561.073C254.608 559.695 254.51 558.316 254.51 556.937C254.51 556.543 254.51 556.051 254.51 555.657C254.51 552.899 254.608 550.24 254.805 547.581C255.396 539.505 256.972 531.528 259.533 523.846C260.321 521.285 261.305 518.823 262.29 516.361C262.29 516.262 262.29 516.164 262.389 516.065C262.881 514.982 263.275 513.899 263.768 512.815C263.866 512.52 264.063 512.323 264.162 512.027C264.654 511.043 265.146 510.058 265.639 509.073C265.836 508.777 265.934 508.383 266.131 508.088C266.624 507.202 267.116 506.217 267.609 505.33C267.805 505.035 268.002 504.641 268.199 504.346C269.086 502.868 269.972 501.391 270.859 500.012C271.252 499.421 271.548 498.929 271.942 498.338C272.237 497.845 272.631 497.353 273.025 496.861C273.518 496.073 274.109 495.383 274.601 494.694C274.896 494.3 275.192 493.906 275.586 493.414C276.177 492.626 276.866 491.739 277.556 490.951C277.851 490.656 278.048 490.361 278.343 490.065C279.23 489.08 280.018 488.095 280.904 487.111C280.904 487.111 281.101 486.914 281.101 486.815C282.086 485.732 283.071 484.747 284.056 483.762C284.942 482.876 285.828 481.989 286.715 481.201C286.813 481.103 286.912 481.004 287.01 480.906C288.586 479.429 290.26 478.05 291.836 476.671C293.018 475.686 294.2 474.8 295.48 473.913C295.972 473.519 296.366 473.224 296.859 472.83C298.336 471.747 299.813 470.86 301.291 469.876C301.586 469.679 301.882 469.482 302.079 469.285C303.654 468.3 305.329 467.315 306.904 466.429C307.003 466.429 307.101 466.33 307.298 466.232L310.154 464.656L317.639 460.519V461.209C329.556 456.186 342.753 453.527 356.541 453.527C406.67 453.527 447.444 412.754 447.444 362.625C447.444 335.935 435.724 310.624 415.337 293.389C414.648 292.798 413.958 292.207 413.367 291.715C403.716 283.934 392.784 278.321 380.867 275.071C372.988 272.904 364.814 271.722 356.541 271.722C285.828 271.722 221.911 310.821 189.706 373.753V373.95C189.115 375.034 188.623 376.117 188.13 377.2C187.343 379.072 186.456 381.041 185.57 382.913C183.009 388.723 180.35 394.731 178.479 400.542C178.479 400.542 178.479 400.739 178.479 400.837C178.479 401.132 178.282 401.329 178.282 401.625C178.085 402.314 177.789 403.102 177.593 403.792C177.1 405.466 176.509 407.239 176.017 409.011C175.82 409.701 175.623 410.489 175.426 411.178C175.032 412.754 174.638 414.33 174.244 415.905C174.047 416.792 173.85 417.58 173.653 418.466C173.358 419.943 172.964 421.421 172.668 422.996C172.471 423.883 172.373 424.868 172.176 425.754C171.88 427.231 171.683 428.708 171.388 430.087C171.289 431.072 171.092 431.958 170.994 432.943C170.797 434.421 170.6 435.898 170.403 437.277C170.305 438.163 170.206 439.049 170.108 440.034C169.911 441.512 169.812 443.087 169.714 444.565C169.714 445.353 169.714 446.042 169.615 446.83C169.32 450.966 169.221 455.004 169.221 459.141C169.221 461.997 169.221 464.853 169.418 467.709C169.418 468.694 169.517 469.679 169.615 470.663V470.565Z" fill="url(#paint3_linear_752_6570)"/>
<path d="M300.601 484.058C299.912 484.55 299.222 485.043 298.631 485.634C297.843 486.323 297.056 487.012 296.268 487.702C295.381 488.49 294.495 489.277 293.707 490.065C293.116 490.656 292.427 491.247 291.836 491.838C290.359 493.315 288.98 494.793 287.601 496.368C287.601 496.368 287.404 496.565 287.404 496.664C286.715 497.452 286.124 498.24 285.533 499.028C285.04 499.618 284.548 500.308 284.055 500.899C283.858 501.194 283.661 501.391 283.465 501.687C277.851 509.369 273.419 517.937 270.366 527.194C268.101 533.99 266.722 541.081 266.131 548.27C265.934 550.634 265.836 553.096 265.836 555.46C265.836 597.021 293.215 631.885 331.427 642.817C331.427 642.817 331.526 642.817 331.624 642.817C332.904 643.211 334.283 643.506 335.662 643.9C335.859 643.9 336.154 643.9 336.351 643.999C337.533 644.294 338.814 644.491 339.995 644.787C340.389 644.787 340.685 644.885 341.079 644.983C342.162 645.18 343.245 645.377 344.427 645.476C344.92 645.476 345.314 645.574 345.806 645.673C346.791 645.771 347.874 645.87 348.859 645.968C349.45 645.968 349.942 645.968 350.533 646.067C351.617 646.067 352.7 646.264 353.685 646.264C353.685 646.264 353.882 646.264 353.98 646.264C354.867 646.264 355.852 646.264 356.836 646.264H357.132H357.526H359.496C360.973 646.264 362.549 646.165 364.026 646.067C365.208 646.067 366.291 646.067 367.473 645.968C370.329 645.771 373.185 645.574 376.041 645.279C377.124 645.18 378.109 644.984 379.193 644.885C381.064 644.688 382.935 644.491 384.806 644.196C385.988 643.999 387.269 643.802 388.45 643.605C390.125 643.309 391.799 643.014 393.473 642.718C394.655 642.521 395.837 642.226 397.019 641.93C398.791 641.536 400.466 641.143 402.14 640.749C403.223 640.453 404.307 640.256 405.39 639.961C407.36 639.468 409.329 638.877 411.201 638.286C411.988 638.089 412.776 637.794 413.564 637.597C436.807 630.309 458.277 618.589 476.891 603.127C476.792 603.127 476.694 603.225 476.497 603.324C464.481 608.741 451.58 612.286 438.186 613.665C434.049 614.059 429.913 614.256 425.776 614.256C358.018 614.256 302.866 559.104 302.866 491.346C302.866 488.194 302.965 485.141 303.26 481.99C302.374 482.58 301.586 483.27 300.7 483.861L300.601 484.058Z" fill="url(#paint4_linear_752_6570)"/>
<path d="M102.152 558.513L21.6894 727.514C5.63624 761.196 30.1592 800 67.4853 800H179.661L198.865 759.818C141.744 707.62 107.175 635.332 102.251 558.513H102.152Z" fill="url(#paint5_linear_752_6570)"/>
<path d="M698.09 558.513C692.969 639.468 655.347 714.514 592.907 767.303L608.468 800H732.757C769.984 800 794.606 761.098 778.553 727.514L698.09 558.513Z" fill="url(#paint6_linear_752_6570)"/>
<path d="M325.124 224.941C326.601 214.6 319.806 203.373 309.17 198.941C304.541 196.971 300.109 196.381 295.972 196.676C278.343 197.956 264.752 216.176 259.237 227.699L239.934 268.275C255.396 256.161 276.669 244.54 303.26 241.684C315.965 240.305 323.745 234.298 325.124 224.843V224.941Z" fill="url(#paint7_linear_752_6570)"/>
</g>
<defs>
<linearGradient id="paint0_linear_752_6570" x1="485.902" y1="47.864" x2="567.871" y2="238.452" gradientUnits="userSpaceOnUse">
<stop stop-color="#5EE2FF"/>
<stop offset="1" stop-color="#005BC6"/>
</linearGradient>
<linearGradient id="paint1_linear_752_6570" x1="453.106" y1="0.172361" x2="566.667" y2="441.667" gradientUnits="userSpaceOnUse">
<stop stop-color="#5EE2FF"/>
<stop offset="1" stop-color="#005BC6"/>
</linearGradient>
<linearGradient id="paint2_linear_752_6570" x1="399.767" y1="66.3794" x2="399.767" y2="800.197" gradientUnits="userSpaceOnUse">
<stop stop-color="#5EE2FF"/>
<stop offset="1" stop-color="#005BC6"/>
</linearGradient>
<linearGradient id="paint3_linear_752_6570" x1="308.332" y1="271.722" x2="308.332" y2="634.839" gradientUnits="userSpaceOnUse">
<stop stop-color="#5EE2FF"/>
<stop offset="1" stop-color="#005BC6"/>
</linearGradient>
<linearGradient id="paint4_linear_752_6570" x1="371.363" y1="481.99" x2="371.363" y2="646.264" gradientUnits="userSpaceOnUse">
<stop stop-color="#5EE2FF"/>
<stop offset="1" stop-color="#005BC6"/>
</linearGradient>
<linearGradient id="paint5_linear_752_6570" x1="107.776" y1="558.513" x2="107.776" y2="800" gradientUnits="userSpaceOnUse">
<stop stop-color="#5EE2FF"/>
<stop offset="1" stop-color="#005BC6"/>
</linearGradient>
<linearGradient id="paint6_linear_752_6570" x1="688.226" y1="558.513" x2="688.226" y2="800" gradientUnits="userSpaceOnUse">
<stop stop-color="#5EE2FF"/>
<stop offset="1" stop-color="#005BC6"/>
</linearGradient>
<linearGradient id="paint7_linear_752_6570" x1="282.63" y1="196.604" x2="282.63" y2="268.275" gradientUnits="userSpaceOnUse">
<stop stop-color="#5EE2FF"/>
<stop offset="1" stop-color="#005BC6"/>
</linearGradient>
<clipPath id="clip0_752_6570">
<rect width="766.909" height="800" fill="white" transform="translate(16.6667)"/>
</clipPath>
</defs>
</svg>
